<svg xmlns="http://www.w3.org/2000/svg" viewBox="0 0 295.5 58.83"><defs><style>.cls-1{fill:#195131;}.cls-2{fill:#d68c45;}</style></defs><title>logo_color</title><g id="Слой_2" data-name="Слой 2"><g id="Слой_1-2" data-name="Слой 1"><path class="cls-1" d="M0,34.5H4a12.43,12.43,0,0,0,2.45-2.6,16.21,16.21,0,0,0,2.8-8.65l1-20.75-3.5-1V.75H33V1.5l-3,.75V34.5h4.75v9.75h-1.5a9,9,0,0,1-2.15-2.2,10.51,10.51,0,0,1-2.1-6.3H5.75a10.54,10.54,0,0,1-2.15,6.3,9.42,9.42,0,0,1-2.1,2.2H0Zm21.75,0V2h-10l-1,21.25A16.8,16.8,0,0,1,8.1,31.9a10.55,10.55,0,0,1-2.35,2.6ZM52,36.5q-6.19,0-9.75-3.5t-3.5-9.75q0-6.19,3.5-9.7T52,10q6.2,0,9.7,3.55t3.55,9.7q0,6.2-3.55,9.75T52,36.5Zm0-1q2,0,3.35-2.8t1.4-9.45q0-6.64-1.4-9.45T52,11c-1.33,0-2.47.93-3.4,2.8s-1.35,5-1.35,9.45.45,7.58,1.35,9.45S50.68,35.5,52,35.5ZM75,16.75V33.5L79,35v.75h-9.5V35l4-1.5V12.25L70,11.5v-.75h6.75a6.76,6.76,0,0,1,4,1.05,8.55,8.55,0,0,1,2.55,2.95l6.8,12.05,5.45-12a7.36,7.36,0,0,1,2.4-3,7.12,7.12,0,0,1,4.1-1h5v.75l-3,.75v22l3,.75v.75H93V35l3-.75V16.75l-8.8,19.5H86ZM125.51,36.5q-6.21,0-9.75-3.5t-3.5-9.75q0-6.19,3.5-9.7T125.51,10q6.19,0,9.7,3.55t3.55,9.7q0,6.2-3.55,9.75T125.51,36.5Zm0-1q2,0,3.35-2.8t1.4-9.45q0-6.64-1.4-9.45T125.51,11q-2,0-3.4,2.8t-1.35,9.45q0,6.65,1.35,9.45T125.51,35.5Zm32,1q-6.39,0-10-3.5T144,23.25q0-6.19,3.55-9.7t10-3.55q4.6,0,6.9,1.6a4.65,4.65,0,0,1,2.35,3.9,3.72,3.72,0,0,1-1.05,2.75,3.61,3.61,0,0,1-2.7,1,9.51,9.51,0,0,1-1.4-.1L161,19V11.5l-.7-.25a5.63,5.63,0,0,0-1.8-.25,5,5,0,0,0-4.45,2.7q-1.55,2.7-1.55,9.55,0,6.65,1.55,9.35a5,5,0,0,0,4.45,2.65,7.4,7.4,0,0,0,3.6-.9,7.14,7.14,0,0,0,2.65-2.45,5.71,5.71,0,0,0,1-3.15H167a6.75,6.75,0,0,1-1.2,3.8,8.59,8.59,0,0,1-3.35,2.9A11.12,11.12,0,0,1,157.52,36.5Zm19-1.5,3-.75V12h-3.75a10.89,10.89,0,0,1-1.65,5.55,10.12,10.12,0,0,1-1.6,1.95H171V10.75h25V19.5h-1.5a9.08,9.08,0,0,1-1.65-1.95,10.72,10.72,0,0,1-1.6-5.55h-3.75V34.25l3,.75v.75h-14ZM200,45l3-.75v-32l-3-.75v-.75h4.5a5.93,5.93,0,0,1,4.65,1.9,6.76,6.76,0,0,1,1.1,1.85,7.8,7.8,0,0,1,1.65-2.25,7.59,7.59,0,0,1,5.6-2.25,9.23,9.23,0,0,1,5.25,1.55,10.19,10.19,0,0,1,3.65,4.5,17.26,17.26,0,0,1,1.35,7.2q0,6.41-3,9.85a10.05,10.05,0,0,1-8,3.4,8.47,8.47,0,0,1-4.2-1,7.48,7.48,0,0,1-1.55-1v9.75l3,.75v.75H200Zm14.75-10c1.43,0,2.53-.83,3.3-2.5s1.2-4.75,1.2-9.25q0-6.45-1.1-8.95c-.7-1.7-1.59-2.55-2.65-2.55a4.26,4.26,0,0,0-3.4,2,8,8,0,0,0-1.1,2V33a10,10,0,0,0,1.1,1A4.43,4.43,0,0,0,214.78,35Zm31.5,1.5q-6.21,0-9.75-3.5T233,23.25q0-6.19,3.5-9.7T246.28,10q6.19,0,9.7,3.55t3.55,9.7q0,6.2-3.55,9.75T246.28,36.5Zm0-1q2,0,3.35-2.8t1.4-9.45q0-6.64-1.4-9.45T246.28,11q-2,0-3.4,2.8t-1.35,9.45q0,6.65,1.35,9.45T246.28,35.5ZM279.8,7.25a10.66,10.66,0,0,1-5.7-1.2,3.55,3.55,0,0,1-1.8-3,2.89,2.89,0,0,1,3-3l1.15.15.6.1v5.5a6.12,6.12,0,0,1,.69.25,6.37,6.37,0,0,0,2.06.25,5.89,5.89,0,0,0,2-.25,6,6,0,0,1,.75-.25V.25l.59-.1L284.3,0a2.91,2.91,0,0,1,3,3,3.56,3.56,0,0,1-1.85,3.05A10.43,10.43,0,0,1,279.8,7.25Zm-15,28.5V35l3-.75v-22l-3-.75v-.75h14v.75l-3,.75v16.5l8-13.75V12.25l-3-.75v-.75h14v.75l-3,.75v22l3,.75v.75h-14V35l3-.75V17.75l-8,13.75v2.75l3,.75v.75Z"/><rect class="cls-2" x="0.5" y="53.75" width="40" height="1"/><rect class="cls-2" x="255.5" y="53.75" width="40" height="1"/><path class="cls-1" d="M53.7,54.9H51.78v3.85h-.86v-8.4h.86v3.77H53.7l2.84-3.77h1l-3.12,4.08,3.3,4.32h-1Zm10.63,1.61H59.65l-1,2.24h-.92l3.84-8.4h.88l3.84,8.4h-.94ZM64,55.79l-2-4.52-2,4.52Zm7-5.44a3.81,3.81,0,0,1,2.52.77,2.9,2.9,0,0,1,0,4.22A3.81,3.81,0,0,1,71,56.1H68.77v2.65h-.89v-8.4Zm0,5a2.94,2.94,0,0,0,1.91-.54,1.92,1.92,0,0,0,.66-1.55,1.9,1.9,0,0,0-.66-1.56A2.88,2.88,0,0,0,71,51.12H68.77v4.2Zm8.07-.42H77.15v3.85h-.86v-8.4h.86v3.77h1.92l2.85-3.77h1l-3.12,4.08,3.3,4.32H82ZM89.7,56.51H85l-1,2.24h-.92l3.84-8.4h.88l3.84,8.4h-.94Zm-.32-.72-2-4.52-2,4.52Zm7.43,3a4.64,4.64,0,0,1-2.26-.55A4.24,4.24,0,0,1,93,56.75a4.42,4.42,0,0,1-.56-2.2A4.29,4.29,0,0,1,93,52.37a4.06,4.06,0,0,1,1.59-1.54,4.57,4.57,0,0,1,2.25-.55,4.63,4.63,0,0,1,1.73.31,3.51,3.51,0,0,1,1.34.91l-.56.57a3.32,3.32,0,0,0-2.48-1,3.62,3.62,0,0,0-1.82.46,3.39,3.39,0,0,0-1.28,1.24,3.67,3.67,0,0,0,0,3.56A3.39,3.39,0,0,0,95,57.57a3.62,3.62,0,0,0,1.82.46,3.32,3.32,0,0,0,2.48-1l.56.57a3.68,3.68,0,0,1-1.35.92A4.67,4.67,0,0,1,96.81,58.82Zm11.94-8.47v8.4h-.88V54.87h-5.25v3.88h-.89v-8.4h.89v3.74h5.25V50.35Zm6.52,8.47a4.68,4.68,0,0,1-2.27-.55,4.34,4.34,0,0,1-1.58-5.9A4.08,4.08,0,0,1,113,50.84a4.68,4.68,0,0,1,2.27-.56,4.51,4.51,0,0,1,2.24.55,4.13,4.13,0,0,1,1.59,1.54,4.2,4.2,0,0,1,.57,2.18,4.32,4.32,0,0,1-.57,2.2,4.22,4.22,0,0,1-1.59,1.52A4.51,4.51,0,0,1,115.27,58.82Zm0-.79a3.75,3.75,0,0,0,1.8-.44,3.43,3.43,0,0,0,1.26-1.25,3.61,3.61,0,0,0,.45-1.79,3.54,3.54,0,0,0-.45-1.78,3.26,3.26,0,0,0-1.26-1.24,3.77,3.77,0,0,0-3.61,0,3.31,3.31,0,0,0-1.28,1.24,3.54,3.54,0,0,0-.45,1.78,3.61,3.61,0,0,0,.45,1.79,3.49,3.49,0,0,0,1.28,1.25A3.76,3.76,0,0,0,115.27,58ZM127.73,58v.77h-5.94v-8.4h5.76v.77h-4.87v3H127v.75h-4.34V58Zm8.78.84a4.57,4.57,0,0,1-2.25-.55,4.1,4.1,0,0,1-1.57-1.52,4.32,4.32,0,0,1-.57-2.2,4.2,4.2,0,0,1,.57-2.18,4,4,0,0,1,1.58-1.54,4.92,4.92,0,0,1,4-.24,3.62,3.62,0,0,1,1.35.91l-.57.57a3.31,3.31,0,0,0-2.48-1,3.58,3.58,0,0,0-1.81.46,3.42,3.42,0,0,0-1.29,1.24,3.75,3.75,0,0,0,0,3.56,3.42,3.42,0,0,0,1.29,1.24,3.58,3.58,0,0,0,1.81.46A3.29,3.29,0,0,0,139,57l.57.57a3.72,3.72,0,0,1-1.36.92A4.63,4.63,0,0,1,136.51,58.82Zm10.31-7.7h-2.95v7.63H143V51.12h-3v-.77h6.78Zm4.7-.77a3.78,3.78,0,0,1,2.52.77,2.88,2.88,0,0,1,0,4.22,3.77,3.77,0,0,1-2.52.76h-2.25v2.65h-.89v-8.4Zm0,5a3,3,0,0,0,1.91-.54,1.92,1.92,0,0,0,.66-1.55,1.9,1.9,0,0,0-.66-1.56,2.9,2.9,0,0,0-1.91-.55h-2.23v4.2Zm9.08,3.5a4.64,4.64,0,0,1-2.26-.55,4.2,4.2,0,0,1-1.59-1.54,4.52,4.52,0,0,1,0-4.36,4.1,4.1,0,0,1,1.59-1.53,4.64,4.64,0,0,1,2.26-.56,4.55,4.55,0,0,1,2.25.55,4,4,0,0,1,1.58,1.54,4.11,4.11,0,0,1,.58,2.18,4.23,4.23,0,0,1-.58,2.2,4.12,4.12,0,0,1-1.58,1.52A4.55,4.55,0,0,1,160.58,58.82Zm0-.79a3.69,3.69,0,0,0,1.8-.44,3.29,3.29,0,0,0,1.26-1.25,3.51,3.51,0,0,0,.46-1.79,3.45,3.45,0,0,0-.46-1.78,3.13,3.13,0,0,0-1.26-1.24,3.5,3.5,0,0,0-1.8-.46,3.61,3.61,0,0,0-1.81.46,3.29,3.29,0,0,0-1.27,1.24,3.55,3.55,0,0,0-.46,1.78,3.61,3.61,0,0,0,.46,1.79,3.46,3.46,0,0,0,1.27,1.25A3.81,3.81,0,0,0,160.58,58Zm6.53-7.68H168v7l5.38-7h.8v8.4h-.87v-7l-5.38,7h-.8Zm15.38.77h-3v7.63h-.87V51.12h-3v-.77h6.78ZM190,58v.77h-5.94v-8.4h5.76v.77h-4.87v3h4.35v.75h-4.35V58Zm8.56-7.63v8.4h-.87V51.12h-4.06l-.1,2.81a16.91,16.91,0,0,1-.28,2.8,3.46,3.46,0,0,1-.68,1.59,1.54,1.54,0,0,1-1.21.51,2.61,2.61,0,0,1-.67-.08l.07-.79a1.9,1.9,0,0,0,.4,0,1,1,0,0,0,.85-.42,3.06,3.06,0,0,0,.5-1.3,15.58,15.58,0,0,0,.23-2.34l.12-3.6Zm6.35,3a3.38,3.38,0,0,1,2.27.67,2.44,2.44,0,0,1,.79,2,2.54,2.54,0,0,1-.84,2.06,3.6,3.6,0,0,1-2.4.7h-3.34v-8.4h.88v3ZM204.7,58a2.66,2.66,0,0,0,1.76-.51,1.9,1.9,0,0,0,.61-1.53c0-1.29-.79-1.93-2.37-1.93h-2.44v4Zm8.88.78a4.58,4.58,0,0,1-2.26-.55,4.17,4.17,0,0,1-1.57-1.52,4.32,4.32,0,0,1-.57-2.2,4.2,4.2,0,0,1,.57-2.18,4,4,0,0,1,1.58-1.54,4.61,4.61,0,0,1,2.26-.55,4.67,4.67,0,0,1,1.73.31,3.67,3.67,0,0,1,1.34.91l-.56.57a3.35,3.35,0,0,0-2.49-1,3.58,3.58,0,0,0-1.81.46,3.39,3.39,0,0,0-1.28,1.24,3.67,3.67,0,0,0,0,3.56,3.39,3.39,0,0,0,1.28,1.24,3.58,3.58,0,0,0,1.81.46,3.32,3.32,0,0,0,2.49-1l.56.57a3.72,3.72,0,0,1-1.36.92A4.58,4.58,0,0,1,213.58,58.82Zm10.3-7.7h-2.95v7.63h-.87V51.12h-3v-.77h6.78Zm6.54,3.3a2.29,2.29,0,0,1,1.34.71,2.22,2.22,0,0,1-.33,3,3.71,3.71,0,0,1-2.27.59h-3.72v-8.4h3.49a3.53,3.53,0,0,1,2.11.55,1.86,1.86,0,0,1,.75,1.6,2,2,0,0,1-.36,1.2A2.17,2.17,0,0,1,230.42,54.42Zm-4.1-.27h2.57a2.45,2.45,0,0,0,1.49-.39,1.54,1.54,0,0,0,0-2.31,2.45,2.45,0,0,0-1.49-.39h-2.57ZM229.16,58c1.45,0,2.18-.54,2.18-1.62s-.73-1.58-2.18-1.58h-2.84V58Zm9,.78a4.65,4.65,0,0,1-2.27-.55,4.36,4.36,0,0,1-1.59-5.9,4.17,4.17,0,0,1,1.59-1.53,4.66,4.66,0,0,1,2.27-.56,4.51,4.51,0,0,1,2.24.55,4,4,0,0,1,1.58,1.54,4.11,4.11,0,0,1,.58,2.18,4.23,4.23,0,0,1-.58,2.2,4.12,4.12,0,0,1-1.58,1.52A4.51,4.51,0,0,1,238.12,58.82Zm0-.79a3.75,3.75,0,0,0,1.8-.44,3.43,3.43,0,0,0,1.26-1.25,3.61,3.61,0,0,0,.45-1.79,3.54,3.54,0,0,0-.45-1.78,3.26,3.26,0,0,0-1.26-1.24,3.55,3.55,0,0,0-1.8-.46,3.62,3.62,0,0,0-1.82.46A3.29,3.29,0,0,0,235,52.77a3.54,3.54,0,0,0-.45,1.78,3.61,3.61,0,0,0,.45,1.79,3.46,3.46,0,0,0,1.27,1.25A3.83,3.83,0,0,0,238.12,58Z"/></g></g></svg>