<svg xmlns="http://www.w3.org/2000/svg" viewBox="0 0 295.5 58.87"><defs><style>.cls-1{fill:#fdfdf9;}</style></defs><title>logo_white</title><g id="Слой_2" data-name="Слой 2"><g id="Слой_1-2" data-name="Слой 1"><path class="cls-1" d="M0,34.5H4a12.43,12.43,0,0,0,2.45-2.6,16.21,16.21,0,0,0,2.8-8.65l1-20.75-3.5-1V.75H33V1.5l-3,.75V34.5h4.75v9.75h-1.5a9,9,0,0,1-2.15-2.2,10.51,10.51,0,0,1-2.1-6.3H5.75a10.54,10.54,0,0,1-2.15,6.3,9.42,9.42,0,0,1-2.1,2.2H0Zm21.75,0V2h-10l-1,21.25A16.8,16.8,0,0,1,8.1,31.9a10.55,10.55,0,0,1-2.35,2.6ZM52,36.5q-6.19,0-9.75-3.5t-3.5-9.75q0-6.19,3.5-9.7T52,10q6.2,0,9.7,3.55t3.55,9.7q0,6.2-3.55,9.75T52,36.5Zm0-1q2,0,3.35-2.8t1.4-9.45q0-6.64-1.4-9.45T52,11c-1.33,0-2.47.93-3.4,2.8s-1.35,5-1.35,9.45.45,7.58,1.35,9.45S50.68,35.5,52,35.5ZM75,16.75V33.5L79,35v.75h-9.5V35l4-1.5V12.25L70,11.5v-.75h6.75a6.76,6.76,0,0,1,4,1.05,8.55,8.55,0,0,1,2.55,2.95l6.8,12.05,5.45-12a7.36,7.36,0,0,1,2.4-3,7.12,7.12,0,0,1,4.1-1h5v.75l-3,.75v22l3,.75v.75H93V35l3-.75V16.75l-8.8,19.5H86ZM125.51,36.5q-6.21,0-9.75-3.5t-3.5-9.75q0-6.19,3.5-9.7T125.51,10q6.19,0,9.7,3.55t3.55,9.7q0,6.2-3.55,9.75T125.51,36.5Zm0-1q2,0,3.35-2.8t1.4-9.45q0-6.64-1.4-9.45T125.51,11q-2,0-3.4,2.8t-1.35,9.45q0,6.65,1.35,9.45T125.51,35.5Zm32,1q-6.39,0-10-3.5T144,23.25q0-6.19,3.55-9.7t10-3.55q4.6,0,6.9,1.6a4.65,4.65,0,0,1,2.35,3.9,3.72,3.72,0,0,1-1.05,2.75,3.61,3.61,0,0,1-2.7,1,9.51,9.51,0,0,1-1.4-.1L161,19V11.5l-.7-.25a5.63,5.63,0,0,0-1.8-.25,5,5,0,0,0-4.45,2.7q-1.55,2.7-1.55,9.55,0,6.65,1.55,9.35a5,5,0,0,0,4.45,2.65,7.4,7.4,0,0,0,3.6-.9,7.14,7.14,0,0,0,2.65-2.45,5.71,5.71,0,0,0,1-3.15H167a6.75,6.75,0,0,1-1.2,3.8,8.59,8.59,0,0,1-3.35,2.9A11.12,11.12,0,0,1,157.52,36.5Zm19-1.5,3-.75V12h-3.75a10.89,10.89,0,0,1-1.65,5.55,10.12,10.12,0,0,1-1.6,1.95H171V10.75h25V19.5h-1.5a9.08,9.08,0,0,1-1.65-1.95,10.72,10.72,0,0,1-1.6-5.55h-3.75V34.25l3,.75v.75h-14ZM200,45l3-.75v-32l-3-.75v-.75h4.5a5.93,5.93,0,0,1,4.65,1.9,6.76,6.76,0,0,1,1.1,1.85,7.8,7.8,0,0,1,1.65-2.25,7.59,7.59,0,0,1,5.6-2.25,9.23,9.23,0,0,1,5.25,1.55,10.19,10.19,0,0,1,3.65,4.5,17.26,17.26,0,0,1,1.35,7.2q0,6.41-3,9.85a10.05,10.05,0,0,1-8,3.4,8.47,8.47,0,0,1-4.2-1,7.48,7.48,0,0,1-1.55-1v9.75l3,.75v.75H200Zm14.75-10c1.43,0,2.53-.83,3.3-2.5s1.2-4.75,1.2-9.25q0-6.45-1.1-8.95c-.7-1.7-1.59-2.55-2.65-2.55a4.26,4.26,0,0,0-3.4,2,8,8,0,0,0-1.1,2V33a10,10,0,0,0,1.1,1A4.43,4.43,0,0,0,214.78,35Zm31.5,1.5q-6.21,0-9.75-3.5T233,23.25q0-6.19,3.5-9.7T246.28,10q6.19,0,9.7,3.55t3.55,9.7q0,6.2-3.55,9.75T246.28,36.5Zm0-1q2,0,3.35-2.8t1.4-9.45q0-6.64-1.4-9.45T246.28,11q-2,0-3.4,2.8t-1.35,9.45q0,6.65,1.35,9.45T246.28,35.5ZM279.8,7.25a10.66,10.66,0,0,1-5.7-1.2,3.55,3.55,0,0,1-1.8-3,2.89,2.89,0,0,1,3-3l1.15.15.6.1v5.5a6.12,6.12,0,0,1,.69.25,6.37,6.37,0,0,0,2.06.25,5.89,5.89,0,0,0,2-.25,6,6,0,0,1,.75-.25V.25l.59-.1L284.3,0a2.91,2.91,0,0,1,3,3,3.56,3.56,0,0,1-1.85,3.05A10.43,10.43,0,0,1,279.8,7.25Zm-15,28.5V35l3-.75v-22l-3-.75v-.75h14v.75l-3,.75v16.5l8-13.75V12.25l-3-.75v-.75h14v.75l-3,.75v22l3,.75v.75h-14V35l3-.75V17.75l-8,13.75v2.75l3,.75v.75Z"/><rect class="cls-1" x="0.5" y="53.75" width="40" height="1"/><rect class="cls-1" x="255.5" y="53.75" width="40" height="1"/><path class="cls-1" d="M53.77,55.21H52.21v3.54H50.68v-8.4h1.53v3.52h1.61l2.41-3.52h1.66L55,54.42l3,4.33H56.23Zm10.71,1.6h-4.2l-.83,1.94h-1.6l3.78-8.4h1.53L67,58.75H65.32ZM64,55.58l-1.59-3.67-1.57,3.67Zm7.73-5.23a4.55,4.55,0,0,1,1.89.36,2.73,2.73,0,0,1,1.25,1,3.17,3.17,0,0,1,0,3.19,2.75,2.75,0,0,1-1.25,1,4.55,4.55,0,0,1-1.89.36H69.8v2.42H68.24v-8.4ZM71.63,55a2.36,2.36,0,0,0,1.54-.44,1.47,1.47,0,0,0,.53-1.23,1.49,1.49,0,0,0-.53-1.24,2.36,2.36,0,0,0-1.54-.43H69.8V55Zm8.22.2H78.29v3.54H76.75v-8.4h1.54v3.52h1.6l2.42-3.52H84l-2.87,4.07,3,4.33H82.31Zm10.71,1.6h-4.2l-.83,1.94H83.92l3.78-8.4h1.54L93,58.75H91.4ZM90,55.58l-1.58-3.67-1.58,3.67Zm8,3.29a4.79,4.79,0,0,1-2.3-.55,4.21,4.21,0,0,1-1.61-1.55,4.37,4.37,0,0,1-.57-2.22,4.28,4.28,0,0,1,.58-2.22,4.18,4.18,0,0,1,1.61-1.54,5.06,5.06,0,0,1,4.19-.2,3.87,3.87,0,0,1,1.44,1l-1,.95a3,3,0,0,0-2.24-1A3.18,3.18,0,0,0,96.6,52,2.7,2.7,0,0,0,95.53,53a3.23,3.23,0,0,0,0,3,2.79,2.79,0,0,0,1.07,1.06,3.17,3.17,0,0,0,1.55.37,2.92,2.92,0,0,0,2.24-1l1,1a3.9,3.9,0,0,1-1.45,1A4.82,4.82,0,0,1,98.06,58.87Zm12.25-8.52v8.4h-1.56v-3.6h-4.34v3.6h-1.56v-8.4h1.56v3.47h4.34V50.35Zm6.25,8.52a4.82,4.82,0,0,1-2.32-.55,4.17,4.17,0,0,1-1.62-1.55,4.45,4.45,0,0,1,0-4.43,4.1,4.1,0,0,1,1.62-1.55,5.07,5.07,0,0,1,4.63,0,4.07,4.07,0,0,1,1.62,1.54,4.47,4.47,0,0,1,0,4.44,4.17,4.17,0,0,1-1.62,1.55A4.81,4.81,0,0,1,116.56,58.87Zm0-1.37a3,3,0,0,0,1.51-.37,2.74,2.74,0,0,0,1.05-1.06,3,3,0,0,0,.39-1.52,3,3,0,0,0-.39-1.51A2.61,2.61,0,0,0,118.07,52a3.05,3.05,0,0,0-1.51-.38A3.09,3.09,0,0,0,115,52,2.68,2.68,0,0,0,114,53a3,3,0,0,0-.39,1.51,3,3,0,0,0,.39,1.52A2.81,2.81,0,0,0,115,57.13,3.08,3.08,0,0,0,116.56,57.5Zm12.54-.06v1.31h-6.29v-8.4h6.13v1.31h-4.58v2.18h4.06v1.29h-4.06v2.31ZM138,58.87a4.79,4.79,0,0,1-2.3-.55,4.21,4.21,0,0,1-1.61-1.55,4.37,4.37,0,0,1-.57-2.22,4.28,4.28,0,0,1,.58-2.22,4.18,4.18,0,0,1,1.61-1.54,5.06,5.06,0,0,1,4.19-.2,3.87,3.87,0,0,1,1.44,1l-1,.95a3,3,0,0,0-2.24-1,3.18,3.18,0,0,0-1.55.38A2.7,2.7,0,0,0,135.49,53a3.23,3.23,0,0,0,0,3,2.79,2.79,0,0,0,1.07,1.06,3.17,3.17,0,0,0,1.55.37,2.92,2.92,0,0,0,2.24-1l1,1a3.9,3.9,0,0,1-1.45,1A4.82,4.82,0,0,1,138,58.87Zm10.79-7.2H146v7.08h-1.55V51.67h-2.77V50.35h7.1Zm4.8-1.32a4.63,4.63,0,0,1,1.9.36,2.78,2.78,0,0,1,1.25,1,3.17,3.17,0,0,1,0,3.19,2.8,2.8,0,0,1-1.25,1,4.63,4.63,0,0,1-1.9.36h-1.89v2.42h-1.56v-8.4ZM153.54,55a2.39,2.39,0,0,0,1.55-.44,1.5,1.5,0,0,0,.53-1.23,1.52,1.52,0,0,0-.53-1.24,2.39,2.39,0,0,0-1.55-.43h-1.82V55Zm9.13,3.86a4.82,4.82,0,0,1-2.32-.55,4.38,4.38,0,0,1-1.62-6,4.16,4.16,0,0,1,1.62-1.55,5.09,5.09,0,0,1,4.64,0,4.11,4.11,0,0,1,1.61,1.54,4.3,4.3,0,0,1-1.61,6A4.85,4.85,0,0,1,162.67,58.87Zm0-1.37a3,3,0,0,0,1.51-.37,2.84,2.84,0,0,0,1.06-1.06,3.09,3.09,0,0,0,.38-1.52,3.05,3.05,0,0,0-.38-1.51A2.7,2.7,0,0,0,164.18,52a3.19,3.19,0,0,0-3,0A2.7,2.7,0,0,0,160.1,53a3.05,3.05,0,0,0-.38,1.51,3.09,3.09,0,0,0,.38,1.52,2.84,2.84,0,0,0,1.06,1.06A3,3,0,0,0,162.67,57.5Zm6.26-7.15h1.54v6l4.51-6h1.45v8.4h-1.54v-6l-4.51,6h-1.45Zm15.95,1.32H182.1v7.08h-1.55V51.67h-2.77V50.35h7.1Zm7.65,5.77v1.31h-6.3v-8.4h6.13v1.31h-4.57v2.18h4.05v1.29h-4.05v2.31Zm8.91-7.09v8.4h-1.53V51.67h-3.32l-.07,2.1a16.77,16.77,0,0,1-.29,2.87,3.59,3.59,0,0,1-.73,1.67,1.78,1.78,0,0,1-1.39.56,4.15,4.15,0,0,1-.85-.12l.11-1.36a1,1,0,0,0,.36,0,1.08,1.08,0,0,0,1-.86,10.07,10.07,0,0,0,.38-2.75l.12-3.48Zm6.24,2.84a3.47,3.47,0,0,1,2.32.69,2.45,2.45,0,0,1,.81,2,2.64,2.64,0,0,1-.88,2.14,3.84,3.84,0,0,1-2.5.73h-3.61v-8.4h1.53v2.84Zm-.32,4.36a2.11,2.11,0,0,0,1.4-.42,1.51,1.51,0,0,0,.49-1.22q0-1.53-1.89-1.53h-2v3.17Zm8.91,1.32a4.74,4.74,0,0,1-2.3-.55,4.21,4.21,0,0,1-1.61-1.55,4.5,4.5,0,0,1,0-4.44A4.11,4.11,0,0,1,214,50.79a4.77,4.77,0,0,1,2.3-.56,4.82,4.82,0,0,1,1.89.36,4,4,0,0,1,1.44,1l-1,.95a3,3,0,0,0-2.25-1,3.14,3.14,0,0,0-1.54.38A2.64,2.64,0,0,0,213.74,53a3.16,3.16,0,0,0,0,3,2.73,2.73,0,0,0,1.07,1.06,3.13,3.13,0,0,0,1.54.37,2.94,2.94,0,0,0,2.25-1l1,1a3.94,3.94,0,0,1-1.46,1A4.74,4.74,0,0,1,216.27,58.87Zm10.79-7.2h-2.79v7.08h-1.54V51.67H220V50.35h7.11Zm6.87,2.71a2.25,2.25,0,0,1,1.23.75,2,2,0,0,1,.42,1.29,2,2,0,0,1-.82,1.72,3.86,3.86,0,0,1-2.36.61h-4v-8.4h3.76a3.8,3.8,0,0,1,2.21.56,1.85,1.85,0,0,1,.79,1.6,2,2,0,0,1-.32,1.14A1.94,1.94,0,0,1,233.93,54.38Zm-4-.44H232a1.88,1.88,0,0,0,1.15-.3,1.19,1.19,0,0,0,0-1.78,1.81,1.81,0,0,0-1.15-.31H230Zm2.4,3.61c1.11,0,1.66-.42,1.66-1.25s-.55-1.22-1.66-1.22H230v2.47Zm8.89,1.32a4.81,4.81,0,0,1-2.31-.55,4.17,4.17,0,0,1-1.62-1.55,4.45,4.45,0,0,1,0-4.43,4.1,4.1,0,0,1,1.62-1.55,5.07,5.07,0,0,1,4.63,0,4.07,4.07,0,0,1,1.62,1.54,4.47,4.47,0,0,1,0,4.44,4.17,4.17,0,0,1-1.62,1.55A4.82,4.82,0,0,1,241.24,58.87Zm0-1.37a3.08,3.08,0,0,0,1.52-.37,2.81,2.81,0,0,0,1.05-1.06,3,3,0,0,0,.39-1.52,3,3,0,0,0-.39-1.51A2.68,2.68,0,0,0,242.76,52a3.09,3.09,0,0,0-1.52-.38,3.05,3.05,0,0,0-1.51.38,2.61,2.61,0,0,0-1,1.06,3,3,0,0,0-.39,1.51,3,3,0,0,0,.39,1.52,2.74,2.74,0,0,0,1,1.06A3,3,0,0,0,241.24,57.5Z"/></g></g></svg>